<svg width="316" height="316" viewBox="0 0 316 316" fill="none" xmlns="http://www.w3.org/2000/svg">
<circle cx="158" cy="158" r="158" fill="#F4F8FF"/>
<path d="M125.225 118.654L145.206 140.28L131.109 168.069L160.878 162.735L174.431 195.434L232 119.946L125.225 118.654ZM121.541 165.497L127.084 160.939L119.937 163.198L119.207 162.156L122.161 159.289L118.286 160.852C103.5 166.586 93 180.926 93 197.693C93 208.993 97.7607 219.151 105.354 226.345C101.984 220.424 100.218 213.726 100.228 206.914C100.228 190.32 110.705 175.552 125.219 169.731L127.043 165.295L122.7 167.212L121.478 165.561L121.541 165.497ZM146.816 154.088L156.071 137.749L210.501 125.002L146.816 154.088Z" fill="#004DE2"/>
</svg>
