<svg width="22" height="22" viewBox="0 0 22 22" fill="none" xmlns="http://www.w3.org/2000/svg">
<path d="M10.4509 21.7798L0.227194 11.5528C0.0946643 11.4202 0 11.2119 0 11.0035C0 10.7952 0.0946643 10.5869 0.227194 10.4543L10.4509 0.227267C10.7539 -0.0757557 11.2461 -0.0757557 11.5491 0.227267C11.7005 0.378779 11.7762 0.568168 11.7762 0.776496C11.7762 0.984825 11.7005 1.17421 11.5491 1.32573L2.6506 10.227L21.2238 10.227C21.6592 10.227 22 10.5679 22 11.0035C22 11.4391 21.6592 11.78 21.2238 11.78L2.6506 11.78L11.5491 20.6813C11.852 20.9843 11.852 21.4768 11.5491 21.7798C11.2461 22.0828 10.7539 22.0639 10.4509 21.7798Z" fill="#C4C4C4"/>
</svg>
