<svg width="18" height="18" viewBox="0 0 18 18" fill="none" xmlns="http://www.w3.org/2000/svg">
<path d="M14.93 10.5998H10.5819V12.0234H7.41807V10.5998H3.06996C1.85193 10.5998 0.755706 10.0689 0 9.22656V17.1336H18V9.22656C17.2443 10.0689 16.1481 10.5998 14.93 10.5998Z" fill="#E2E2E2"/>
<path d="M3.06996 9.54344H7.41807V8.15474H10.5819V9.54344H14.93C16.6215 9.54344 17.9978 8.16841 18 6.47748V3.74958H13.0112V3.37999C13.0112 1.99227 11.8822 0.863281 10.4945 0.863281H7.50553C6.11782 0.863281 4.98883 1.99227 4.98883 3.37999V3.74954H0V6.47881C0.0029528 8.16915 1.37896 9.54344 3.06996 9.54344ZM6.04337 3.37999C6.04337 2.57376 6.69927 1.91785 7.50549 1.91785H10.4945C11.3007 1.91785 11.9566 2.57376 11.9566 3.37999V3.74954H6.04337V3.37999Z" fill="#E2E2E2"/>
<path d="M9.52737 9.21094H8.47266V10.9687H9.52737V9.21094Z" fill="#E2E2E2"/>
</svg>
