<svg width="18" height="18" viewBox="0 0 18 18" fill="none" xmlns="http://www.w3.org/2000/svg">
<path d="M15.156 17.6097H2.84424V0.390198H15.1524V17.6097H15.156ZM3.579 16.875H14.4599V1.12496H3.579V16.875Z" fill="white"/>
<path d="M13.4685 6.47222H4.53174V2.33081H13.472V6.47222H13.4685ZM5.26299 5.74097H12.7724V3.06558H5.26299V5.74097Z" fill="white"/>
<path d="M6.50762 8.41284H4.89746V9.14409H6.50762V8.41284Z" fill="white"/>
<path d="M9.80547 8.41284H8.19531V9.14409H9.80547V8.41284Z" fill="white"/>
<path d="M13.1028 8.41284H11.4927V9.14409H13.1028V8.41284Z" fill="white"/>
<path d="M6.50762 10.5398H4.89746V11.271H6.50762V10.5398Z" fill="white"/>
<path d="M9.80547 10.5398H8.19531V11.271H9.80547V10.5398Z" fill="white"/>
<path d="M13.1028 10.5398H11.4927V11.271H13.1028V10.5398Z" fill="white"/>
<path d="M6.50762 12.6984H4.89746V13.4296H6.50762V12.6984Z" fill="white"/>
<path d="M9.80547 12.6984H8.19531V13.4296H9.80547V12.6984Z" fill="white"/>
<path d="M6.50762 14.8605H4.89746V15.5917H6.50762V14.8605Z" fill="white"/>
<path d="M9.80547 14.8605H8.19531V15.5917H9.80547V14.8605Z" fill="white"/>
<path d="M12.6985 12.5543H11.9673V15.5953H12.6985V12.5543Z" fill="white"/>
</svg>
