<svg width="11" height="9" viewBox="0 0 11 9" fill="none" xmlns="http://www.w3.org/2000/svg">
<path d="M0.615385 4.96875C0.538462 4.89375 0.5 4.78125 0.5 4.70625C0.5 4.63125 0.538462 4.51875 0.615385 4.44375L1.15385 3.91875C1.30769 3.76875 1.53846 3.76875 1.69231 3.91875L1.73077 3.95625L3.84615 6.16875C3.92308 6.24375 4.03846 6.24375 4.11538 6.16875L9.26923 0.95625H9.30769C9.46154 0.80625 9.69231 0.80625 9.84615 0.95625L10.3846 1.48125C10.5385 1.63125 10.5385 1.85625 10.3846 2.00625L4.23077 8.23125C4.15385 8.30625 4.07692 8.34375 3.96154 8.34375C3.84615 8.34375 3.76923 8.30625 3.69231 8.23125L0.692308 5.08125L0.615385 4.96875Z" fill="white"/>
</svg>
