<svg width="10" height="10" viewBox="0 0 10 10" fill="none" xmlns="http://www.w3.org/2000/svg">
<path d="M8.4269 0.825179L4.69725 4.55485L0.967604 0.825178C0.761354 0.618928 0.427923 0.618928 0.221674 0.825179C0.0154241 1.03143 0.0154242 1.36486 0.221674 1.57111L3.95132 5.30078L0.221674 9.03045C0.0154248 9.2367 0.0154248 9.57013 0.221674 9.77638C0.427924 9.98264 0.761355 9.98264 0.967604 9.77638L4.69725 6.04672L8.42691 9.77639C8.63315 9.98264 8.96659 9.98264 9.17284 9.77639C9.37908 9.57013 9.37908 9.2367 9.17284 9.03045L5.44318 5.30078L9.17283 1.57111C9.37908 1.36486 9.37908 1.03143 9.17283 0.825179C8.96658 0.618929 8.63315 0.618928 8.4269 0.825179Z" fill="#79869D"/>
</svg>
