<svg width="19" height="19" viewBox="0 0 19 19" fill="none" xmlns="http://www.w3.org/2000/svg">
<path d="M18.095 0.904762C16.8879 -0.301587 14.9246 -0.301587 13.7176 0.904762L1.31608 13.3059C1.31024 13.3118 1.3068 13.319 1.30164 13.3252C1.29442 13.3335 1.28823 13.3424 1.28169 13.3513C1.26347 13.3768 1.24937 13.404 1.23871 13.4335C1.23561 13.4425 1.23114 13.4504 1.22873 13.4593C1.2277 13.4628 1.22564 13.4662 1.22461 13.4696L0.00894124 18.5763C0.00343894 18.5994 0.00206336 18.6228 0.00137557 18.6458C0.00137557 18.6503 0 18.6544 0 18.6589C0.000343894 18.6981 0.00894124 18.7362 0.0223531 18.773C0.0254481 18.7816 0.0288871 18.7892 0.0326699 18.7975C0.0495207 18.8342 0.0704982 18.8697 0.100073 18.8992C0.132743 18.9319 0.171259 18.957 0.21287 18.9742C0.254481 18.9914 0.298844 19 0.343206 19C0.369686 19 0.396509 18.9969 0.422645 18.9907L5.52947 17.7751C5.53875 17.773 5.54701 17.7679 5.55595 17.7648C5.56764 17.761 5.57864 17.7565 5.58999 17.7514C5.61475 17.74 5.63779 17.7259 5.65912 17.7091C5.66737 17.7025 5.67597 17.6977 5.68388 17.6905C5.68663 17.6877 5.69007 17.6864 5.69282 17.6836L18.0947 5.28208C19.3017 4.07504 19.3017 2.11145 18.095 0.904762ZM17.6087 1.39102C18.4643 2.24695 18.5372 3.59085 17.8323 4.53309L14.4666 1.16749C15.4092 0.462526 16.7531 0.535429 17.6087 1.39102ZM15.9065 6.49771L12.5019 3.09325L12.9882 2.60699L16.3927 6.01146L15.9065 6.49771ZM1.70606 17.2933C1.57159 17.1588 1.35425 17.1588 1.21979 17.2933L0.959464 17.5536L1.83777 13.8644L3.35847 13.6956L3.16279 15.457C3.16141 15.47 3.16623 15.4821 3.16623 15.4948C3.16623 15.5078 3.16141 15.5195 3.16279 15.5326C3.16417 15.544 3.17001 15.5532 3.17242 15.5642C3.17655 15.5842 3.18239 15.6024 3.18961 15.621C3.19856 15.6433 3.20922 15.6636 3.22228 15.6832C3.23294 15.699 3.24361 15.7131 3.25667 15.7269C3.27318 15.7444 3.29106 15.7592 3.31066 15.773C3.32614 15.7836 3.34093 15.7936 3.35812 15.8019C3.38082 15.8125 3.40455 15.8187 3.42931 15.8246C3.44238 15.8277 3.45304 15.8349 3.46645 15.8366C3.47883 15.838 3.49121 15.8387 3.50393 15.8387H3.50428H3.50462H3.50497H3.50531C3.51769 15.8387 3.53041 15.838 3.54279 15.8366L5.30422 15.6409L5.13537 17.1616L1.44573 18.0399L1.70606 17.7796C1.84018 17.6454 1.84018 17.4278 1.70606 17.2933ZM6.02192 15.4092L13.7176 7.71334C13.852 7.57889 13.852 7.36155 13.7176 7.22709C13.5831 7.09263 13.3658 7.09263 13.2313 7.22709L5.53566 14.9229L3.89425 15.1052L4.07652 13.4638L11.7729 5.76833C11.9073 5.63387 11.9073 5.41654 11.7729 5.28208C11.6384 5.14762 11.4211 5.14762 11.2866 5.28208L3.59025 12.9775L2.49564 13.0993L12.0156 3.5795L15.4202 6.98396L5.90018 16.5037L6.02192 15.4092ZM16.879 5.5252L13.4744 2.12074L13.9611 1.63414L17.3656 5.03861L16.879 5.5252Z" fill="#79869D"/>
</svg>
