<svg width="24" height="24" viewBox="0 0 24 24" fill="none" xmlns="http://www.w3.org/2000/svg">
<path d="M5.11567 9.49192C5.57383 9.49192 6.02391 9.42016 6.45751 9.28192L9.03463 11.8573L11.8569 9.03552L9.28103 6.45736C9.77759 4.90568 9.36959 3.18632 8.21231 2.02944C7.38847 1.20536 6.29175 0.751678 5.12727 0.751678C4.47663 0.751678 3.82423 0.899118 3.23887 1.17824C3.15055 1.22032 3.08871 1.3024 3.07215 1.39864C3.05607 1.49488 3.08703 1.59256 3.15575 1.66192L5.86727 4.37408C6.06735 4.574 6.17775 4.83944 6.17775 5.1212C6.17775 5.40368 6.06719 5.66864 5.86727 5.86856C5.46895 6.26808 4.77255 6.26808 4.37351 5.86752L1.66103 3.15608C1.59151 3.08656 1.49159 3.05608 1.39807 3.07224C1.30159 3.0888 1.21975 3.15064 1.17767 3.23896C0.381028 4.9084 0.722468 6.9076 2.02895 8.21312C2.85327 9.03744 3.94943 9.49192 5.11567 9.49192Z" fill="#79869D"/>
<path d="M18.8859 14.5078C18.4268 14.5078 17.976 14.5801 17.5421 14.7186L14.6916 11.8679L11.8674 14.6917L14.7187 17.5429C14.2231 19.0941 14.6308 20.813 15.7874 21.9706C16.6115 22.7946 17.7082 23.2484 18.8726 23.2484C19.5235 23.2484 20.1759 23.1006 20.7612 22.8216C20.8495 22.7796 20.9114 22.6974 20.9279 22.6012C20.9445 22.505 20.9131 22.4072 20.8443 22.3379L18.1329 19.6252C17.9332 19.4258 17.8229 19.1608 17.8227 18.879C17.8227 18.5968 17.933 18.3318 18.1334 18.1317C18.533 17.7318 19.2279 17.7321 19.6267 18.1319L22.3386 20.8434C22.4079 20.9124 22.5046 20.9431 22.6019 20.9272C22.6981 20.9104 22.7803 20.8488 22.8223 20.7605C23.6189 19.0913 23.2777 17.0923 21.9712 15.7866C21.1471 14.9623 20.0512 14.5078 18.8859 14.5078Z" fill="#79869D"/>
<path d="M17.7256 8.07904C17.7256 8.07904 18.1974 8.49224 18.5864 8.2992C19.026 8.078 20.2644 9.29896 20.6596 9.58464C20.6608 9.5856 20.6636 9.5856 20.6682 9.58784L20.4522 9.8048C20.1669 10.0868 20.1672 10.5473 20.4515 10.8298C20.736 11.113 21.1934 11.1128 21.478 10.8298L23.1882 9.12176C23.4708 8.83776 23.471 8.37808 23.1877 8.09456C22.9055 7.812 22.4451 7.812 22.1618 8.0948L21.877 8.37936C21.641 8.05432 21.2488 7.50032 21.2986 7.3168C21.5072 6.51304 19.8686 4.61448 19.8686 4.61448C15.7992 0.54584 13.081 0.63832 11.7879 1.08296C11.2688 1.26152 11.3651 1.37464 11.9042 1.4696C15.8274 2.1544 16.314 4.468 15.649 5.36064C15.3932 5.70528 15.7663 6.12136 15.7663 6.12136L15.9065 6.26064L9.28229 12.8837C9.37213 12.9378 9.45941 12.9994 9.53637 13.0766L10.6507 14.1899C10.7264 14.2658 10.7882 14.3525 10.8419 14.4422L17.4662 7.81896L17.7256 8.07904Z" fill="#79869D"/>
<path d="M9.09056 13.522C8.84609 13.2773 8.43001 13.2615 8.16849 13.4886L0.806964 20.0884C0.544244 20.3153 0.529604 20.7014 0.774564 20.9464L2.77968 22.9501C3.0248 23.195 3.41024 23.1814 3.63688 22.9201L10.2386 15.5564C10.4645 15.2951 10.4502 14.8805 10.205 14.6358L9.09056 13.522Z" fill="#79869D"/>
</svg>
