<svg width="209" height="47" viewBox="0 0 209 47" fill="none" xmlns="http://www.w3.org/2000/svg">
<path d="M45.3018 13.9316H48.6709V31.7979H45.3018V13.9316ZM46.8046 28.5546H57.2756V31.7979H46.8046V28.5546Z" fill="#1A1A1A"/>
<path d="M61.6371 31.329C60.8123 30.8956 60.1902 30.2596 59.7568 29.4277C59.3235 28.5959 59.1138 27.5964 59.1138 26.4221V24.346C59.1138 23.1927 59.3305 22.2001 59.7568 21.3753C60.1832 20.5505 60.8123 19.9284 61.6371 19.495C62.462 19.0616 63.4545 18.8519 64.6149 18.8519C65.7752 18.8519 66.7678 19.0686 67.5926 19.495C68.4174 19.9214 69.0395 20.5505 69.4729 21.3753C69.9063 22.2001 70.116 23.1857 70.116 24.346V26.457C70.116 27.6173 69.8993 28.6099 69.4729 29.4347C69.0465 30.2596 68.4174 30.8887 67.5926 31.322C66.7678 31.7554 65.7752 31.9721 64.6149 31.9721C63.4545 31.9721 62.462 31.7624 61.6371 31.329ZM66.1946 28.1416C66.5721 27.7432 66.7608 27.184 66.7608 26.464V24.353C66.7608 23.6401 66.5721 23.0878 66.1946 22.6964C65.8171 22.305 65.2929 22.1093 64.6079 22.1093C63.9368 22.1093 63.4126 22.305 63.0421 22.6964C62.6717 23.0878 62.4829 23.6401 62.4829 24.353V26.464C62.4829 27.184 62.6647 27.7432 63.0351 28.1416C63.4056 28.54 63.9299 28.7357 64.6079 28.7357C65.2859 28.7357 65.8171 28.54 66.1946 28.1416Z" fill="#1A1A1A"/>
<path d="M75.3515 31.329C74.5267 30.8956 73.9046 30.2596 73.4712 29.4277C73.0378 28.5959 72.8281 27.5964 72.8281 26.4221V24.346C72.8281 23.1927 73.0448 22.2001 73.4712 21.3753C73.8976 20.5505 74.5267 19.9284 75.3515 19.495C76.1763 19.0616 77.1689 18.8519 78.3292 18.8519C79.4896 18.8519 80.4821 19.0686 81.307 19.495C82.1318 19.9214 82.7539 20.5505 83.1873 21.3753C83.6206 22.2001 83.8303 23.1857 83.8303 24.346V26.457C83.8303 27.6173 83.6136 28.6099 83.1873 29.4347C82.7609 30.2596 82.1318 30.8887 81.307 31.322C80.4821 31.7554 79.4896 31.9721 78.3292 31.9721C77.1689 31.9721 76.1763 31.7624 75.3515 31.329ZM79.902 28.1416C80.2794 27.7432 80.4682 27.184 80.4682 26.464V24.353C80.4682 23.6401 80.2794 23.0878 79.902 22.6964C79.5245 22.305 79.0003 22.1093 78.3152 22.1093C77.6442 22.1093 77.12 22.305 76.7495 22.6964C76.379 23.0878 76.1903 23.6401 76.1903 24.353V26.464C76.1903 27.184 76.372 27.7432 76.7425 28.1416C77.113 28.54 77.6372 28.7357 78.3152 28.7357C78.9933 28.7357 79.5245 28.54 79.902 28.1416Z" fill="#1A1A1A"/>
<path d="M86.9062 13.931H90.2754V31.7974H86.9062V13.931ZM88.479 27.205L94.4274 19.0477H97.9923L88.9333 30.9166L88.479 27.205ZM91.5056 25.2128L94.2807 23.5422L98.6214 31.7974H94.728L91.5056 25.2128Z" fill="#1A1A1A"/>
<path d="M100.459 13.917H103.829V31.7973H100.459V13.917ZM101.802 21.3683H108.016C108.358 21.3683 108.666 21.2844 108.924 21.1097C109.183 20.9349 109.393 20.6903 109.532 20.3757C109.672 20.0612 109.749 19.6907 109.763 19.2713C109.763 18.8519 109.693 18.4814 109.546 18.1669C109.4 17.8523 109.197 17.6007 108.938 17.4329C108.68 17.2652 108.372 17.1743 108.016 17.1743H101.802V13.931H108.288C109.274 13.931 110.134 14.1547 110.882 14.595C111.629 15.0354 112.203 15.6645 112.615 16.4683C113.027 17.2722 113.23 18.2088 113.23 19.2783C113.23 20.3478 113.027 21.2774 112.615 22.0883C112.203 22.8991 111.622 23.5212 110.875 23.9616C110.127 24.4019 109.26 24.6256 108.288 24.6256H101.802V21.3683ZM105.562 24.0594L109.162 23.4932L113.978 31.7973H109.896L105.562 24.0594Z" fill="#2643C3"/>
<path d="M119.752 31.9791C119.752 31.9791 119.319 31.7554 118.445 31.3081C117.571 30.8607 116.907 30.2107 116.446 29.3579C115.984 28.5051 115.761 27.4706 115.761 26.2683V24.8284C115.761 23.5702 115.977 22.4867 116.418 21.599C116.858 20.7113 117.494 20.0263 118.333 19.5579C119.172 19.0896 120.185 18.8589 121.374 18.8589C122.485 18.8589 123.443 19.1385 124.24 19.6977C125.036 20.2569 125.638 21.0608 126.05 22.1233C126.462 23.1857 126.672 24.4649 126.672 25.9608V26.7996H117.949V24.5278H123.603L123.569 24.2342C123.478 23.5003 123.247 22.9271 122.877 22.5287C122.506 22.1303 122.003 21.9275 121.381 21.9275C120.57 21.9275 119.941 22.1722 119.493 22.6545C119.046 23.1368 118.822 23.8218 118.822 24.7095V26.3312C118.822 27.198 119.067 27.869 119.556 28.3443C120.046 28.8196 120.724 29.0573 121.604 29.0573C122.052 29.0573 122.499 28.9804 122.946 28.8197C123.394 28.6589 123.792 28.4352 124.149 28.1346L126.351 30.0848C125.686 30.693 124.939 31.1613 124.114 31.4898C123.289 31.8183 122.45 31.9861 121.604 31.9861C120.367 31.9791 119.752 31.9791 119.752 31.9791Z" fill="#2643C3"/>
<path d="M129.615 19.0407H132.984V31.7973H129.615V19.0407ZM137.052 24.4369C137.052 23.689 136.87 23.1158 136.5 22.7104C136.129 22.305 135.612 22.1023 134.941 22.1023C134.319 22.1023 133.837 22.277 133.494 22.6265C133.152 22.976 132.984 23.4653 132.984 24.0944L132.725 21.2705C133.103 20.4806 133.571 19.8864 134.137 19.474C134.703 19.0616 135.367 18.8589 136.129 18.8589C137.031 18.8589 137.8 19.0756 138.443 19.509C139.086 19.9424 139.575 20.5785 139.911 21.4103C140.246 22.2421 140.414 23.2486 140.414 24.4229V31.7973H137.045V24.4369H137.052ZM144.482 24.4369C144.482 23.689 144.308 23.1158 143.951 22.7104C143.595 22.305 143.091 22.1023 142.434 22.1023C141.784 22.1023 141.288 22.298 140.939 22.6824C140.589 23.0669 140.414 23.6191 140.414 24.3321L139.785 21.3823C140.184 20.5715 140.708 19.9494 141.351 19.509C141.994 19.0686 142.707 18.8519 143.497 18.8519C144.413 18.8519 145.195 19.0686 145.852 19.502C146.51 19.9354 146.999 20.5715 147.341 21.4033C147.684 22.2351 147.852 23.2416 147.852 24.4159V31.7904H144.482V24.4369Z" fill="#2643C3"/>
<path d="M153.325 31.329C152.5 30.8956 151.878 30.2596 151.444 29.4277C151.011 28.5959 150.801 27.5964 150.801 26.4221V24.346C150.801 23.1927 151.018 22.2001 151.444 21.3753C151.871 20.5505 152.5 19.9284 153.325 19.495C154.149 19.0616 155.142 18.8519 156.302 18.8519C157.463 18.8519 158.455 19.0686 159.28 19.495C160.105 19.9214 160.727 20.5505 161.16 21.3753C161.594 22.2001 161.803 23.1857 161.803 24.346V26.457C161.803 27.6173 161.587 28.6099 161.16 29.4347C160.734 30.2596 160.105 30.8887 159.28 31.322C158.455 31.7554 157.463 31.9721 156.302 31.9721C155.142 31.9721 154.149 31.7624 153.325 31.329ZM157.875 28.1416C158.253 27.7432 158.441 27.184 158.441 26.464V24.353C158.441 23.6401 158.253 23.0878 157.875 22.6964C157.498 22.305 156.973 22.1093 156.288 22.1093C155.617 22.1093 155.093 22.305 154.723 22.6964C154.352 23.0878 154.163 23.6401 154.163 24.353V26.464C154.163 27.184 154.345 27.7432 154.716 28.1416C155.086 28.54 155.61 28.7357 156.288 28.7357C156.966 28.7357 157.505 28.54 157.875 28.1416Z" fill="#2643C3"/>
<path d="M164.879 19.0407H168.249V31.7973H164.879V19.0407ZM172.254 24.0664C172.254 23.4443 172.079 22.962 171.723 22.6195C171.366 22.277 170.863 22.1023 170.206 22.1023C169.584 22.1023 169.101 22.277 168.759 22.6265C168.416 22.976 168.249 23.4653 168.249 24.0944L167.99 21.2705C168.374 20.4666 168.836 19.8655 169.374 19.467C169.912 19.0686 170.583 18.8659 171.394 18.8659C172.736 18.8659 173.778 19.3203 174.512 20.222C175.246 21.1237 175.616 22.4098 175.616 24.0594V31.7973H172.247V24.0664H172.254Z" fill="#2643C3"/>
<path d="M177.958 19.0407H184.2V21.9136H177.958V19.0407ZM180.048 31.0075C179.53 30.4413 179.265 29.5955 179.265 28.4841V15.336H182.634V27.6453C182.634 27.9599 182.697 28.1975 182.816 28.3653C182.934 28.5331 183.116 28.6169 183.354 28.6169H184.193V31.8603H182.494C181.39 31.8603 180.572 31.5737 180.048 31.0075Z" fill="#2643C3"/>
<path d="M15.1334 27.3517C15.0286 27.3517 14.9237 27.3937 14.8468 27.4706L10.5899 31.7275C10.4362 31.8812 10.4362 32.1399 10.5899 32.2937L11.7223 33.426C11.8761 33.5798 12.1347 33.5798 12.2885 33.426L16.5454 29.1691C16.6992 29.0154 16.6992 28.7567 16.5454 28.6029L15.413 27.4706C15.3431 27.3937 15.2383 27.3517 15.1334 27.3517Z" fill="#1A1A1A"/>
<path d="M19.1105 25.4855C19.4251 25.1709 19.9354 25.1709 20.2429 25.4855L25.3526 30.5951C25.5134 30.7489 25.758 30.7489 25.9188 30.5951L29.3229 27.191C29.4767 27.0372 29.4767 26.7786 29.3229 26.6248L27.9039 25.2059L27.3377 25.7721L27.9039 26.3382C28.2185 26.6528 28.2185 27.1631 27.9039 27.4706L26.1984 29.1762C25.8838 29.4907 25.3736 29.4907 25.066 29.1762L19.9563 24.0665C19.7956 23.9127 19.5439 23.9127 19.3901 24.0665L16.2656 27.191L16.8318 27.7572L19.1105 25.4855Z" fill="#1A1A1A"/>
<path d="M19.9564 15.1473C19.8515 15.1473 19.7467 15.1892 19.6698 15.2661L17.398 17.5378C17.2443 17.6916 17.2443 17.9503 17.398 18.104L25.3456 26.0516C25.5064 26.2054 25.7511 26.2054 25.9118 26.0516L28.1836 23.7799C28.3373 23.6261 28.3373 23.3675 28.1836 23.2137L20.243 15.2661C20.1661 15.1892 20.0682 15.1473 19.9564 15.1473Z" fill="#1A1A1A"/>
<path d="M24.5487 11.5265L21.0957 14.9796L28.4771 22.361L32.734 18.1041C32.8878 17.9503 32.8878 17.6917 32.734 17.5379C32.5802 17.3841 32.3216 17.3841 32.1678 17.5379L29.6165 20.0892C29.1412 20.5506 28.3723 20.5366 27.9109 20.0613C27.4636 19.593 27.4636 18.852 27.9109 18.3907L28.7637 17.5379C28.9175 17.3841 28.9175 17.1255 28.7637 16.9717C28.6029 16.8179 28.3513 16.8179 28.1975 16.9717L27.0651 18.1041C26.5968 18.5724 25.8349 18.5724 25.3596 18.1041C24.8843 17.6358 24.8913 16.8739 25.3596 16.3985L26.492 15.2662C26.6457 15.1124 26.6457 14.8538 26.492 14.7C26.3382 14.5462 26.0795 14.5462 25.9258 14.7L24.7934 15.8323C24.3181 16.2867 23.5632 16.2867 23.0878 15.8323C22.6195 15.364 22.6195 14.6021 23.0878 14.1268L25.1219 12.0927C25.2757 11.9389 25.2757 11.6803 25.1219 11.5265C24.9612 11.3727 24.7095 11.3727 24.5487 11.5265Z" fill="#3857F2"/>
<path d="M28.764 12.4282C28.6103 12.2744 28.3516 12.2744 28.1979 12.4282C28.0441 12.582 28.0441 12.8406 28.1979 12.9944C28.3516 13.1482 28.6103 13.1482 28.764 12.9944C28.9178 12.8336 28.9178 12.582 28.764 12.4282Z" fill="#3857F2"/>
<path d="M31.0287 15.2661C31.1825 15.1123 31.1825 14.8536 31.0287 14.6999C30.8749 14.5461 30.6163 14.5461 30.4625 14.6999C30.3087 14.8536 30.3087 15.1123 30.4625 15.2661C30.6233 15.4198 30.8749 15.4198 31.0287 15.2661Z" fill="#3857F2"/>
</svg>
