<svg width="178" height="40" viewBox="0 0 178 40" fill="none" xmlns="http://www.w3.org/2000/svg">
<path d="M38.5825 11.8654H41.452V27.0817H38.5825V11.8654ZM39.8625 24.3194H48.7803V27.0817H39.8625V24.3194Z" fill="#1A1A1A"/>
<path d="M52.4953 26.6822C51.7928 26.3131 51.263 25.7714 50.8939 25.0629C50.5248 24.3545 50.3462 23.5032 50.3462 22.5031V20.735C50.3462 19.7527 50.5307 18.9074 50.8939 18.2049C51.257 17.5024 51.7928 16.9726 52.4953 16.6035C53.1978 16.2344 54.0431 16.0558 55.0313 16.0558C56.0196 16.0558 56.8649 16.2403 57.5674 16.6035C58.2699 16.9666 58.7997 17.5024 59.1688 18.2049C59.5379 18.9074 59.7165 19.7468 59.7165 20.735V22.5328C59.7165 23.5211 59.5319 24.3664 59.1688 25.0689C58.8057 25.7714 58.2699 26.3072 57.5674 26.6763C56.8649 27.0454 56.0196 27.2299 55.0313 27.2299C54.0431 27.2299 53.1978 27.0513 52.4953 26.6822ZM56.3768 23.9676C56.6982 23.6282 56.859 23.152 56.859 22.5388V20.7409C56.859 20.1337 56.6982 19.6634 56.3768 19.33C56.0553 18.9967 55.6088 18.83 55.0254 18.83C54.4539 18.83 54.0074 18.9967 53.6919 19.33C53.3764 19.6634 53.2156 20.1337 53.2156 20.7409V22.5388C53.2156 23.152 53.3704 23.6282 53.6859 23.9676C54.0014 24.3069 54.4479 24.4736 55.0254 24.4736C55.6028 24.4736 56.0553 24.3069 56.3768 23.9676Z" fill="#1A1A1A"/>
<path d="M64.1755 26.6822C63.473 26.3131 62.9432 25.7714 62.5741 25.0629C62.205 24.3545 62.0264 23.5032 62.0264 22.5031V20.735C62.0264 19.7527 62.2109 18.9074 62.5741 18.2049C62.9372 17.5024 63.473 16.9726 64.1755 16.6035C64.8779 16.2344 65.7233 16.0558 66.7115 16.0558C67.6997 16.0558 68.5451 16.2403 69.2476 16.6035C69.95 16.9666 70.4799 17.5024 70.849 18.2049C71.2181 18.9074 71.3967 19.7468 71.3967 20.735V22.5328C71.3967 23.5211 71.2121 24.3664 70.849 25.0689C70.4858 25.7714 69.95 26.3072 69.2476 26.6763C68.5451 27.0454 67.6997 27.2299 66.7115 27.2299C65.7233 27.2299 64.8779 27.0513 64.1755 26.6822ZM68.051 23.9676C68.3725 23.6282 68.5332 23.152 68.5332 22.5388V20.7409C68.5332 20.1337 68.3725 19.6634 68.051 19.33C67.7295 18.9967 67.283 18.83 66.6996 18.83C66.1281 18.83 65.6816 18.9967 65.3661 19.33C65.0506 19.6634 64.8898 20.1337 64.8898 20.7409V22.5388C64.8898 23.152 65.0446 23.6282 65.3601 23.9676C65.6757 24.3069 66.1222 24.4736 66.6996 24.4736C67.2771 24.4736 67.7295 24.3069 68.051 23.9676Z" fill="#1A1A1A"/>
<path d="M74.0156 11.8647H76.8851V27.0811H74.0156V11.8647ZM75.3551 23.1698L80.4212 16.2225H83.4574L75.742 26.331L75.3551 23.1698ZM77.9328 21.4732L80.2962 20.0504L83.9931 27.0811H80.6772L77.9328 21.4732Z" fill="#1A1A1A"/>
<path d="M85.5591 11.8528H88.4285V27.081H85.5591V11.8528ZM86.7021 18.1989H91.9945C92.2862 18.1989 92.5481 18.1274 92.7684 17.9786C92.9886 17.8298 93.1672 17.6214 93.2863 17.3535C93.4054 17.0856 93.4709 16.7701 93.4828 16.4129C93.4828 16.0557 93.4232 15.7402 93.2982 15.4723C93.1732 15.2044 93.0006 14.9901 92.7803 14.8472C92.56 14.7044 92.2981 14.627 91.9945 14.627H86.7021V11.8647H92.2266C93.066 11.8647 93.7983 12.0552 94.4353 12.4302C95.0723 12.8053 95.5604 13.3411 95.9117 14.0257C96.2629 14.7103 96.4355 15.508 96.4355 16.4189C96.4355 17.3297 96.2629 18.1215 95.9117 18.812C95.5604 19.5026 95.0663 20.0324 94.4293 20.4075C93.7923 20.7825 93.0541 20.973 92.2266 20.973H86.7021V18.1989ZM89.9049 20.4908L92.9708 20.0086L97.0725 27.081H93.5959L89.9049 20.4908Z" fill="#2643C3"/>
<path d="M101.99 27.2359C101.99 27.2359 101.621 27.0454 100.877 26.6644C100.133 26.2834 99.5671 25.7297 99.1742 25.0034C98.7813 24.2772 98.5908 23.3961 98.5908 22.3721V21.1458C98.5908 20.0742 98.7754 19.1515 99.1504 18.3954C99.5255 17.6394 100.067 17.0559 100.782 16.6571C101.496 16.2582 102.359 16.0618 103.371 16.0618C104.318 16.0618 105.133 16.2999 105.812 16.7761C106.491 17.2524 107.003 17.937 107.354 18.8419C107.705 19.7468 107.884 20.8362 107.884 22.1102V22.8246H100.454V20.8898H105.27L105.241 20.6398C105.163 20.0147 104.967 19.5265 104.651 19.1872C104.336 18.8479 103.907 18.6752 103.377 18.6752C102.687 18.6752 102.151 18.8836 101.77 19.2943C101.389 19.7051 101.198 20.2885 101.198 21.0446V22.4257C101.198 23.1639 101.407 23.7354 101.823 24.1402C102.24 24.545 102.818 24.7475 103.568 24.7475C103.949 24.7475 104.33 24.682 104.711 24.545C105.092 24.4081 105.431 24.2176 105.735 23.9616L107.61 25.6226C107.044 26.1405 106.407 26.5394 105.705 26.8192C105.002 27.099 104.288 27.2418 103.568 27.2418C102.514 27.2359 101.99 27.2359 101.99 27.2359Z" fill="#2643C3"/>
<path d="M110.39 16.2165H113.259V27.0811H110.39V16.2165ZM116.724 20.8124C116.724 20.1754 116.569 19.6872 116.254 19.3419C115.938 18.9967 115.497 18.824 114.926 18.824C114.396 18.824 113.985 18.9728 113.694 19.2705C113.402 19.5682 113.259 19.9849 113.259 20.5207L113.039 18.1156C113.36 17.4429 113.759 16.9369 114.241 16.5856C114.724 16.2344 115.289 16.0617 115.938 16.0617C116.706 16.0617 117.361 16.2463 117.909 16.6154C118.456 16.9845 118.873 17.5262 119.159 18.2346C119.444 18.9431 119.587 19.8003 119.587 20.8005V27.0811H116.718V20.8124H116.724ZM123.052 20.8124C123.052 20.1754 122.903 19.6872 122.6 19.3419C122.296 18.9967 121.867 18.824 121.308 18.824C120.754 18.824 120.331 18.9907 120.034 19.3181C119.736 19.6456 119.587 20.1159 119.587 20.7231L119.052 18.2108C119.391 17.5203 119.837 16.9904 120.385 16.6154C120.933 16.2403 121.54 16.0558 122.213 16.0558C122.993 16.0558 123.659 16.2403 124.219 16.6094C124.778 16.9785 125.195 17.5203 125.487 18.2287C125.779 18.9371 125.921 19.7944 125.921 20.7945V27.0751H123.052V20.8124Z" fill="#2643C3"/>
<path d="M130.583 26.6822C129.88 26.3131 129.35 25.7714 128.981 25.0629C128.612 24.3545 128.434 23.5032 128.434 22.5031V20.735C128.434 19.7527 128.618 18.9074 128.981 18.2049C129.344 17.5024 129.88 16.9726 130.583 16.6035C131.285 16.2344 132.131 16.0558 133.119 16.0558C134.107 16.0558 134.952 16.2403 135.655 16.6035C136.357 16.9666 136.887 17.5024 137.256 18.2049C137.625 18.9074 137.804 19.7468 137.804 20.735V22.5328C137.804 23.5211 137.619 24.3664 137.256 25.0689C136.893 25.7714 136.357 26.3072 135.655 26.6763C134.952 27.0454 134.107 27.2299 133.119 27.2299C132.131 27.2299 131.285 27.0513 130.583 26.6822ZM134.458 23.9676C134.78 23.6282 134.94 23.152 134.94 22.5388V20.7409C134.94 20.1337 134.78 19.6634 134.458 19.33C134.137 18.9967 133.69 18.83 133.107 18.83C132.535 18.83 132.089 18.9967 131.773 19.33C131.458 19.6634 131.297 20.1337 131.297 20.7409V22.5388C131.297 23.152 131.452 23.6282 131.767 23.9676C132.083 24.3069 132.529 24.4736 133.107 24.4736C133.684 24.4736 134.143 24.3069 134.458 23.9676Z" fill="#2643C3"/>
<path d="M140.424 16.2165H143.293V27.081H140.424V16.2165ZM146.704 20.4968C146.704 19.967 146.556 19.5562 146.252 19.2645C145.948 18.9728 145.52 18.8239 144.96 18.8239C144.43 18.8239 144.02 18.9728 143.728 19.2704C143.436 19.5681 143.293 19.9848 143.293 20.5206L143.073 18.1155C143.4 17.4309 143.793 16.9189 144.252 16.5796C144.71 16.2403 145.282 16.0676 145.972 16.0676C147.115 16.0676 148.002 16.4546 148.627 17.2225C149.252 17.9905 149.568 19.0859 149.568 20.4908V27.081H146.698V20.4968H146.704Z" fill="#2643C3"/>
<path d="M151.562 16.2166H156.878V18.6633H151.562V16.2166ZM153.342 26.4084C152.901 25.9262 152.675 25.2059 152.675 24.2593V13.0614H155.545V23.5449C155.545 23.8128 155.598 24.0152 155.699 24.1581C155.801 24.301 155.955 24.3724 156.158 24.3724H156.872V27.1347H155.426C154.485 27.1347 153.788 26.8906 153.342 26.4084Z" fill="#2643C3"/>
<path d="M12.8887 23.2948C12.7994 23.2948 12.7101 23.3305 12.6446 23.396L9.01913 27.0215C8.88816 27.1525 8.88816 27.3727 9.01913 27.5037L9.98354 28.4681C10.1145 28.5991 10.3348 28.5991 10.4657 28.4681L14.0912 24.8426C14.2222 24.7117 14.2222 24.4914 14.0912 24.3604L13.1268 23.396C13.0673 23.3305 12.978 23.2948 12.8887 23.2948Z" fill="#1A1A1A"/>
<path d="M16.276 21.7053C16.5439 21.4374 16.9784 21.4374 17.2404 21.7053L21.5922 26.0571C21.7291 26.188 21.9374 26.188 22.0744 26.0571L24.9736 23.1579C25.1045 23.0269 25.1045 22.8066 24.9736 22.6756L23.7651 21.4672L23.2829 21.9494L23.7651 22.4316C24.033 22.6995 24.033 23.134 23.7651 23.396L22.3125 24.8486C22.0446 25.1165 21.61 25.1165 21.3481 24.8486L16.9963 20.4968C16.8594 20.3658 16.6451 20.3658 16.5141 20.4968L13.853 23.1579L14.3352 23.6401L16.276 21.7053Z" fill="#1A1A1A"/>
<path d="M16.9963 12.9005C16.907 12.9005 16.8177 12.9362 16.7522 13.0017L14.8175 14.9365C14.6865 15.0675 14.6865 15.2877 14.8175 15.4187L21.5862 22.1875C21.7232 22.3184 21.9315 22.3184 22.0684 22.1875L24.0032 20.2527C24.1342 20.1217 24.1342 19.9014 24.0032 19.7705L17.2404 13.0017C17.1749 12.9362 17.0916 12.9005 16.9963 12.9005Z" fill="#1A1A1A"/>
<path d="M20.9077 9.81686L17.9668 12.7577L24.2534 19.0443L27.8788 15.4188C28.0098 15.2878 28.0098 15.0676 27.8788 14.9366C27.7479 14.8056 27.5276 14.8056 27.3966 14.9366L25.2237 17.1095C24.8189 17.5024 24.1641 17.4905 23.7711 17.0857C23.3901 16.6868 23.3901 16.0558 23.7711 15.6629L24.4974 14.9366C24.6284 14.8056 24.6284 14.5854 24.4974 14.4544C24.3605 14.3234 24.1462 14.3234 24.0152 14.4544L23.0508 15.4188C22.6519 15.8177 22.0031 15.8177 21.5982 15.4188C21.1934 15.0199 21.1994 14.371 21.5982 13.9662L22.5627 13.0018C22.6936 12.8708 22.6936 12.6506 22.5627 12.5196C22.4317 12.3886 22.2114 12.3886 22.0804 12.5196L21.116 13.484C20.7112 13.871 20.0683 13.871 19.6635 13.484C19.2646 13.0851 19.2646 12.4363 19.6635 12.0314L21.3958 10.2991C21.5268 10.1681 21.5268 9.94783 21.3958 9.81686C21.2589 9.68589 21.0446 9.68589 20.9077 9.81686Z" fill="#3857F2"/>
<path d="M24.4974 10.5848C24.3665 10.4538 24.1462 10.4538 24.0152 10.5848C23.8842 10.7158 23.8842 10.936 24.0152 11.067C24.1462 11.198 24.3665 11.198 24.4974 11.067C24.6284 10.9301 24.6284 10.7158 24.4974 10.5848Z" fill="#3857F2"/>
<path d="M26.4266 13.0017C26.5576 12.8707 26.5576 12.6505 26.4266 12.5195C26.2957 12.3885 26.0754 12.3885 25.9444 12.5195C25.8134 12.6505 25.8134 12.8707 25.9444 13.0017C26.0813 13.1327 26.2957 13.1327 26.4266 13.0017Z" fill="#3857F2"/>
</svg>
