<svg width="14" height="14" viewBox="0 0 14 14" fill="none" xmlns="http://www.w3.org/2000/svg">
<path d="M7.03973 3.07031C6.05308 3.07031 5.25 3.87339 5.25 4.86004C5.25 5.84669 6.05308 6.64976 7.03973 6.64976C8.02638 6.64976 8.82945 5.84669 8.82945 4.86004C8.82945 3.87339 8.02638 3.07031 7.03973 3.07031ZM7.03973 6.13841C6.33483 6.13841 5.76135 5.56493 5.76135 4.86004C5.76135 4.15514 6.33483 3.58166 7.03973 3.58166C7.74462 3.58166 8.3181 4.15514 8.3181 4.86004C8.3181 5.56493 7.74462 6.13841 7.03973 6.13841Z" fill="#79869D"/>
<path d="M10.4639 1.43613C9.53784 0.510072 8.30651 0 6.99694 0C5.68712 0 4.45605 0.510072 3.52999 1.43613C1.8162 3.14966 1.60322 6.37372 3.06875 8.32708L6.99694 14L10.9193 8.33501C12.3907 6.37372 12.1777 3.14966 10.4639 1.43613ZM10.5046 8.03612L6.99694 13.1016L3.48371 8.0282C2.15446 6.25586 2.34494 3.34423 3.89177 1.79765C4.72118 0.968242 5.82391 0.51135 6.99694 0.51135C8.16998 0.51135 9.27271 0.968242 10.1024 1.79765C11.6492 3.34423 11.8397 6.25586 10.5046 8.03612Z" fill="#79869D"/>
</svg>
