<svg width="15" height="15" viewBox="0 0 15 15" fill="none" xmlns="http://www.w3.org/2000/svg">
<path d="M7.87809 0.15879L14.8452 7.12587C14.9355 7.21619 15 7.35811 15 7.50003C15 7.64195 14.9355 7.78387 14.8452 7.87419L7.87809 14.8413C7.67166 15.0477 7.33621 15.0477 7.12978 14.8413C7.02656 14.7381 6.97495 14.609 6.97495 14.4671C6.97495 14.3252 7.02656 14.1962 7.12978 14.093L13.1937 8.02901H0.536854C0.240108 8.02901 0.00787258 7.79678 0.00787258 7.50003C0.00787258 7.20328 0.240108 6.97105 0.536854 6.97105H13.1937L7.12978 0.907106C6.92335 0.700674 6.92335 0.365222 7.12978 0.15879C7.33621 -0.0476427 7.67166 -0.0347404 7.87809 0.15879Z" fill="#79869D"/>
</svg>
