<svg width="13" height="13" viewBox="0 0 13 13" fill="none" xmlns="http://www.w3.org/2000/svg">
<path d="M2.65179 8.64152C3.93401 10.1743 5.47752 11.3811 7.23923 12.235C7.90997 12.5528 8.80699 12.93 9.80637 12.9946C9.86832 12.9973 9.92758 13 9.98954 13C10.6603 13 11.199 12.7683 11.6381 12.2915C11.6408 12.2889 11.6462 12.2835 11.6489 12.2781C11.8051 12.0895 11.9829 11.9198 12.1688 11.7393C12.2954 11.6181 12.4247 11.4915 12.5486 11.3622C13.1224 10.7642 13.1224 10.0046 12.5432 9.4254L10.9243 7.80646C10.6495 7.52093 10.3209 7.37008 9.97607 7.37008C9.63127 7.37008 9.29994 7.52093 9.0171 7.80377L8.05274 8.76813C7.96385 8.71695 7.87226 8.67116 7.78606 8.62806C7.67831 8.57418 7.57864 8.523 7.48975 8.46643C6.61159 7.90883 5.81424 7.18152 5.05191 6.24679C4.66671 5.75922 4.40811 5.34977 4.22763 4.93224C4.48084 4.70327 4.71789 4.46353 4.94686 4.22918C5.02767 4.14567 5.11117 4.06216 5.19468 3.97866C5.4856 3.68773 5.64184 3.35102 5.64184 3.00891C5.64184 2.6668 5.4883 2.33009 5.19468 2.03916L4.39194 1.23643C4.29766 1.14215 4.20877 1.05056 4.11718 0.956278C3.9394 0.773104 3.75353 0.584542 3.57035 0.414836C3.2929 0.142768 2.96695 0 2.62216 0C2.28005 0 1.95141 0.142768 1.66318 0.41753L0.655724 1.42499C0.289375 1.79134 0.0819564 2.23581 0.0388566 2.75031C-0.0123245 3.39411 0.1062 4.07833 0.413287 4.9053C0.884692 6.18483 1.59584 7.37277 2.65179 8.64152ZM0.69613 2.80688C0.728455 2.44861 0.865835 2.14961 1.12443 1.89101L2.12651 0.888935C2.28274 0.738085 2.45514 0.659967 2.62216 0.659967C2.78647 0.659967 2.95349 0.738085 3.10703 0.894322C3.28751 1.06133 3.45722 1.23643 3.64039 1.4223C3.73198 1.51658 3.82626 1.61086 3.92054 1.70783L4.72327 2.51057C4.89029 2.67758 4.97649 2.84729 4.97649 3.0143C4.97649 3.18131 4.89029 3.35102 4.72327 3.51803C4.63977 3.60153 4.55626 3.68773 4.47276 3.77124C4.22224 4.02445 3.98788 4.26419 3.72928 4.49316C3.7239 4.49855 3.7212 4.50124 3.71582 4.50663C3.49223 4.73021 3.52725 4.94302 3.58113 5.10464C3.58382 5.11272 3.58652 5.11811 3.58921 5.12619C3.79663 5.62453 4.08486 6.09863 4.53471 6.66432C5.34284 7.661 6.19406 8.43411 7.13148 9.02942C7.24731 9.10485 7.37122 9.16411 7.48705 9.22337C7.5948 9.27725 7.69447 9.32843 7.78337 9.385C7.79414 9.39038 7.80222 9.39577 7.813 9.40116C7.90189 9.44695 7.98809 9.4685 8.07429 9.4685C8.28979 9.4685 8.42986 9.33112 8.47566 9.28533L9.48312 8.27787C9.63935 8.12163 9.80906 8.03813 9.97607 8.03813C10.1808 8.03813 10.3478 8.16473 10.4529 8.27787L12.0772 9.8995C12.4004 10.2228 12.3977 10.5729 12.0691 10.915C11.956 11.0363 11.8374 11.1521 11.7108 11.2733C11.5223 11.4565 11.3256 11.645 11.1479 11.8579C10.8381 12.1919 10.469 12.3481 9.99223 12.3481C9.94644 12.3481 9.89795 12.3454 9.85216 12.3427C8.96861 12.2862 8.14702 11.9414 7.53015 11.6477C5.85465 10.8369 4.38386 9.6867 3.1636 8.22669C2.15883 7.0172 1.4827 5.89121 1.03554 4.68442C0.758086 3.94364 0.65303 3.34832 0.69613 2.80688Z" fill="#79869D"/>
</svg>
