<svg width="13" height="13" viewBox="0 0 13 13" fill="none" xmlns="http://www.w3.org/2000/svg">
<path d="M10.1848 1.14942L10.1955 1.14248L9.90882 0.965683C9.89192 0.955283 9.87415 0.946617 9.85725 0.936217C9.76322 0.87945 9.66767 0.825067 9.5706 0.77285C9.52142 0.746417 9.47158 0.7215 9.42175 0.696367C9.34873 0.659317 9.27485 0.624 9.20032 0.589767C9.15633 0.569617 9.11257 0.549033 9.06837 0.529967C8.95245 0.479917 8.83523 0.4329 8.71607 0.389567C8.69158 0.380683 8.66667 0.3731 8.64197 0.364433C8.53775 0.328033 8.43223 0.294233 8.32585 0.263033C8.29183 0.253067 8.25782 0.243317 8.22358 0.234C8.10572 0.2015 7.98655 0.171817 7.86608 0.146033C7.8546 0.14365 7.84355 0.140617 7.83207 0.138233C7.69882 0.110283 7.56405 0.0873167 7.42798 0.0678167C7.39808 0.0634833 7.36775 0.0602333 7.33785 0.0563333C7.23147 0.0426833 7.12443 0.0314167 7.01653 0.0229667C6.98013 0.02015 6.94395 0.0169 6.90755 0.0147333C6.77257 0.00563333 6.63693 0 6.5 0C6.35202 0 6.20577 0.00671667 6.06017 0.0164667C6.02203 0.0190667 5.98412 0.0218833 5.94598 0.0251333C5.80927 0.0366167 5.67342 0.05135 5.53908 0.0715C5.52565 0.07345 5.51222 0.0751833 5.49878 0.0771333C5.36358 0.09815 5.23012 0.124583 5.09795 0.153833C5.05418 0.163367 5.01063 0.17355 4.96708 0.184167C4.84532 0.213633 4.72485 0.245917 4.6059 0.2821C4.5682 0.293583 4.53093 0.30615 4.49367 0.318283C4.38707 0.35295 4.28155 0.390433 4.17755 0.430517C4.12988 0.448717 4.08222 0.46735 4.03498 0.48685C3.91538 0.536033 3.79708 0.5876 3.68117 0.643717C3.64303 0.662133 3.60555 0.682717 3.56763 0.702C3.47707 0.747933 3.3878 0.795817 3.29983 0.845867C3.25585 0.870783 3.21208 0.895483 3.16853 0.921483C3.05847 0.987567 2.95035 1.05647 2.84462 1.12862C2.8301 1.13858 2.81472 1.14682 2.80042 1.157L2.68233 1.2389L2.68342 1.24367C1.05885 2.42602 0 4.34113 0 6.5C0 10.0841 2.9159 13 6.5 13C10.0841 13 13 10.0841 13 6.5C13 4.28328 11.8837 2.3231 10.1848 1.14942ZM3.26928 1.3689C3.33927 1.3247 3.41012 1.28202 3.48162 1.24085C3.52127 1.21788 3.56048 1.19427 3.60078 1.17217C3.70132 1.11713 3.80337 1.06578 3.9065 1.01682C3.95113 0.995583 3.9962 0.975867 4.04148 0.955717C4.1171 0.922133 4.19315 0.890283 4.26985 0.859733C4.3121 0.842833 4.35413 0.825283 4.39703 0.809467C4.50667 0.768733 4.6176 0.731467 4.7294 0.69745C4.77035 0.684883 4.81217 0.673833 4.85355 0.662133C4.94043 0.63765 5.02775 0.6149 5.11593 0.594317C5.15537 0.585 5.1948 0.57525 5.23445 0.5668C5.35557 0.541017 5.47755 0.518483 5.6004 0.500067C5.62835 0.49595 5.65673 0.493133 5.68468 0.489233C5.78825 0.475367 5.89247 0.4641 5.99712 0.455433C6.03352 0.4524 6.07013 0.449367 6.10675 0.446983C6.2374 0.439183 6.36827 0.433333 6.5 0.433333C6.61462 0.433333 6.72902 0.437233 6.84298 0.443733C6.8757 0.445467 6.90798 0.448717 6.94048 0.4511C7.0226 0.457167 7.10472 0.4641 7.1864 0.473417C7.22258 0.477533 7.25855 0.482517 7.29452 0.487283C7.3736 0.497683 7.45225 0.509383 7.53068 0.523033C7.56557 0.5291 7.60023 0.535167 7.6349 0.541667C7.71658 0.557267 7.79783 0.574817 7.87865 0.593667C7.90855 0.6006 7.93867 0.6071 7.96835 0.614467C8.06802 0.639383 8.16703 0.666683 8.26518 0.696583C8.27515 0.699617 8.28533 0.702 8.2953 0.705033C8.40017 0.737533 8.50373 0.7735 8.60665 0.811417C8.64782 0.8268 8.68812 0.843483 8.72885 0.859733C8.78865 0.88335 8.84802 0.9074 8.90717 0.932967C8.9583 0.955283 9.009 0.97825 9.05948 1.00187C9.10498 1.0231 9.15005 1.04498 9.19512 1.0673C9.22805 1.08333 9.26098 1.10045 9.2937 1.11757C8.4656 1.4495 7.95123 1.85618 7.37555 2.6052C7.29387 2.71115 7.25248 2.84093 7.25617 2.9705C7.20655 2.8509 7.13375 2.7599 7.03668 2.6962C6.83605 2.56447 6.57345 2.57378 6.23437 2.72502L6.17262 2.73195C5.73798 2.78048 5.49857 2.80735 5.4769 3.28012C5.46585 3.51932 5.59412 3.75548 5.80363 3.88158C5.85672 3.91343 5.9124 3.93662 5.96917 3.9507C5.97523 3.97128 5.98477 3.9923 5.99885 4.01353L6.08617 4.13422L6.22548 4.11103C6.34465 4.09088 6.44475 4.08655 6.51257 4.0885C6.50238 4.1847 6.51928 4.28307 6.56262 4.37082C6.62285 4.49258 6.72642 4.58142 6.85425 4.62085C6.97645 4.65855 6.98707 4.69517 7.0018 4.74565C7.07135 4.98507 7.22952 5.16208 7.43578 5.23077C7.63295 5.29685 7.852 5.25417 8.03768 5.11485C8.14905 5.03057 8.2121 5.04812 8.45542 5.16577C8.61423 5.24247 8.81205 5.33823 9.06815 5.37117C9.10845 5.37615 9.1325 5.38828 9.14138 5.3976C9.31753 5.58263 9.45273 5.81273 9.58338 6.03525C9.78358 6.37607 9.97273 6.69825 10.2982 6.86703C10.5527 6.99942 10.2676 7.7467 10.1309 8.10572C10.1034 8.17808 10.0776 8.24547 10.0561 8.3057C9.72595 8.56007 9.52423 8.84888 9.32902 9.12838C9.15417 9.37863 8.97347 9.63755 8.69332 9.87848C8.27017 10.2427 7.91223 10.4609 7.49667 10.6087C7.42842 10.6327 7.384 10.5922 7.36797 10.5733C7.3528 10.5556 7.32117 10.5072 7.35497 10.4468C7.78245 9.68153 8.27688 8.60232 7.63685 8.07257C7.00938 7.55343 6.77452 6.79965 7.03798 6.15268C7.15 5.87795 7.02498 5.56985 6.7483 5.42512C6.72468 5.3963 6.70778 5.27042 6.69673 5.187C6.67225 5.00392 6.64192 4.7762 6.5065 4.57752C6.45017 4.49518 6.3492 4.42087 6.27965 4.38707C6.0151 4.2575 5.76117 4.22045 5.51568 4.18492C5.32025 4.15632 5.13543 4.12945 4.94693 4.0573C4.22912 3.78192 3.71822 2.61733 3.34512 1.7667C3.29182 1.64493 3.24047 1.52815 3.19107 1.41873C3.21685 1.40227 3.24307 1.38558 3.26928 1.3689ZM6.5 12.5667C3.15488 12.5667 0.433333 9.84512 0.433333 6.5C0.433333 4.53332 1.37475 2.78287 2.82988 1.67375C2.86823 1.75977 2.90745 1.8486 2.94818 1.94133C3.37437 2.91308 3.90477 4.1223 4.79158 4.46247C5.02493 4.55195 5.24268 4.5838 5.45307 4.61413C5.67537 4.64642 5.88532 4.67697 6.08942 4.77707C6.10588 4.78508 6.1399 4.81152 6.14857 4.82235C6.22592 4.93588 6.24693 5.09275 6.26708 5.24442C6.29503 5.45372 6.32667 5.69097 6.53857 5.80298C6.60747 5.8396 6.6677 5.91327 6.63672 5.98932C6.30023 6.81525 6.58428 7.76403 7.3606 8.40667C7.5595 8.57133 7.6544 9.02243 6.97667 10.2358C6.86508 10.4355 6.88892 10.678 7.03712 10.8535C7.1448 10.9807 7.29755 11.0496 7.45593 11.0496C7.5179 11.0496 7.58073 11.0389 7.64205 11.0173C8.11113 10.8504 8.51002 10.6082 8.97607 10.2072C9.29782 9.9307 9.49433 9.64925 9.68457 9.3769C9.87653 9.10195 10.0581 8.84217 10.3556 8.62312C10.3989 8.59148 10.431 8.54837 10.4481 8.49853C10.4715 8.43007 10.5023 8.34947 10.5361 8.26063C10.7588 7.6765 11.0955 6.79358 10.4984 6.4831C10.2836 6.37152 10.1326 6.11433 9.95735 5.81642C9.82085 5.58393 9.66593 5.32047 9.45555 5.09903C9.37408 5.01345 9.25925 4.95907 9.12405 4.94152C8.93772 4.91768 8.78887 4.84553 8.64457 4.77577C8.40688 4.66072 8.1107 4.51772 7.77768 4.7684C7.72742 4.80632 7.65137 4.84553 7.57337 4.81997C7.50403 4.79678 7.44748 4.72572 7.41845 4.62518C7.37642 4.4798 7.28867 4.30127 6.98252 4.2068C6.96908 4.20247 6.95868 4.19315 6.95153 4.17842C6.942 4.15913 6.94092 4.1353 6.95088 4.108C6.99183 3.99642 6.97493 3.88375 6.90452 3.7986C6.82717 3.705 6.68915 3.6569 6.49263 3.65387C6.48505 3.61985 6.46772 3.5854 6.43565 3.55182L6.30413 3.43157L6.15637 3.51867C6.11802 3.54142 6.07468 3.5386 6.02767 3.51C5.95487 3.46645 5.90655 3.37978 5.91023 3.29962C5.9124 3.25 5.91565 3.22183 5.91847 3.20558C5.97155 3.18998 6.0983 3.17568 6.22137 3.16203L6.35288 3.14708L6.38473 3.13235C6.57822 3.04243 6.73313 3.01513 6.799 3.05782C6.82565 3.07537 6.91145 3.15943 6.9017 3.50762L6.89628 3.70002L7.08652 3.72818C7.33373 3.76523 7.51703 3.71692 7.63122 3.58583C7.7493 3.4502 7.77075 3.24892 7.69427 2.98762C7.68322 2.9497 7.69297 2.90312 7.71918 2.8691C8.3187 2.0891 8.8218 1.73008 9.77925 1.39945C11.4543 2.48083 12.5667 4.36237 12.5667 6.5C12.5667 9.84512 9.84512 12.5667 6.5 12.5667Z" fill="#79869D"/>
</svg>
